<mxfile host="app.diagrams.net" modified="2024-02-04T16:22:21.987Z" agent="Mozilla/5.0 (Windows NT 10.0; Win64; x64) AppleWebKit/537.36 (KHTML, like Gecko) Chrome/120.0.0.0 YaBrowser/24.1.0.0 Safari/537.36" etag="06rZ8C2EmW8M6rAZjKG6" version="23.1.1" type="device">
  <diagram name="Страница — 1" id="QU_GySca60jNQJ02c3op">
    <mxGraphModel dx="1050" dy="575" grid="1" gridSize="10" guides="1" tooltips="1" connect="1" arrows="1" fold="1" page="1" pageScale="1" pageWidth="827" pageHeight="1169" math="0" shadow="0">
      <root>
        <mxCell id="0" />
        <mxCell id="1" parent="0" />
        <mxCell id="Ias6ScB54z-BMGi7AfYb-1" value="Начало&lt;br&gt;программы&amp;nbsp;&lt;br&gt;Oбъявление класса Main." style="rounded=1;whiteSpace=wrap;html=1;" parent="1" vertex="1">
          <mxGeometry x="310" y="30" width="120" height="60" as="geometry" />
        </mxCell>
        <mxCell id="Ias6ScB54z-BMGi7AfYb-3" value="" style="endArrow=classic;html=1;rounded=0;exitX=0.5;exitY=1;exitDx=0;exitDy=0;entryX=0.5;entryY=0;entryDx=0;entryDy=0;" parent="1" source="Ias6ScB54z-BMGi7AfYb-1" target="Ias6ScB54z-BMGi7AfYb-4" edge="1">
          <mxGeometry width="50" height="50" relative="1" as="geometry">
            <mxPoint x="390" y="320" as="sourcePoint" />
            <mxPoint x="380" y="150" as="targetPoint" />
          </mxGeometry>
        </mxCell>
        <mxCell id="Ias6ScB54z-BMGi7AfYb-4" value="Создается объект Scanner для считывания&amp;nbsp; ввода данных с консоли&amp;nbsp;через запятую&amp;nbsp;" style="rounded=1;whiteSpace=wrap;html=1;" parent="1" vertex="1">
          <mxGeometry x="280" y="140" width="180" height="60" as="geometry" />
        </mxCell>
        <mxCell id="Ias6ScB54z-BMGi7AfYb-6" value="Получена команда&amp;nbsp;&lt;br style=&quot;border-color: var(--border-color);&quot;&gt;Enter" style="rounded=1;whiteSpace=wrap;html=1;" parent="1" vertex="1">
          <mxGeometry x="280" y="240" width="180" height="60" as="geometry" />
        </mxCell>
        <mxCell id="zesTsWAbrXly0I27ui4A-6" style="edgeStyle=orthogonalEdgeStyle;rounded=0;orthogonalLoop=1;jettySize=auto;html=1;exitX=0.5;exitY=1;exitDx=0;exitDy=0;" edge="1" parent="1" source="Ias6ScB54z-BMGi7AfYb-7">
          <mxGeometry relative="1" as="geometry">
            <mxPoint x="370" y="410" as="targetPoint" />
          </mxGeometry>
        </mxCell>
        <mxCell id="Ias6ScB54z-BMGi7AfYb-7" value="Входная строка разбивается на массив строк методом split(&quot;, &quot;), который разделяет строку на основе разделителя (&quot;, &quot;)." style="rounded=1;whiteSpace=wrap;html=1;" parent="1" vertex="1">
          <mxGeometry x="280" y="330" width="180" height="70" as="geometry" />
        </mxCell>
        <mxCell id="Ias6ScB54z-BMGi7AfYb-8" value="Метод filterShortStrings()&amp;nbsp; отфильтровывает строки длиной 3 или меньше и возвращает в новый массив,&amp;nbsp; отфильтрованные строки." style="rounded=1;whiteSpace=wrap;html=1;" parent="1" vertex="1">
          <mxGeometry x="280" y="435" width="180" height="150" as="geometry" />
        </mxCell>
        <mxCell id="zesTsWAbrXly0I27ui4A-1" value="&lt;br&gt;&lt;span style=&quot;color: rgb(0, 0, 0); font-family: Arial, Helvetica, sans-serif; font-size: 13px; font-style: normal; font-variant-ligatures: normal; font-variant-caps: normal; font-weight: 400; letter-spacing: normal; orphans: 2; text-align: start; text-indent: 0px; text-transform: none; widows: 2; word-spacing: 0px; -webkit-text-stroke-width: 0px; background-color: rgba(7, 28, 71, 0.05); text-decoration-thickness: initial; text-decoration-style: initial; text-decoration-color: initial; float: none; display: inline !important;&quot;&gt;Отфильтрованный массив выводится в terminal&lt;/span&gt;&lt;br&gt;" style="rounded=1;whiteSpace=wrap;html=1;" vertex="1" parent="1">
          <mxGeometry x="280" y="630" width="180" height="70" as="geometry" />
        </mxCell>
        <mxCell id="zesTsWAbrXly0I27ui4A-2" value="" style="endArrow=classic;html=1;rounded=0;exitX=0.5;exitY=1;exitDx=0;exitDy=0;entryX=0.5;entryY=0;entryDx=0;entryDy=0;" edge="1" parent="1" source="Ias6ScB54z-BMGi7AfYb-4" target="Ias6ScB54z-BMGi7AfYb-6">
          <mxGeometry width="50" height="50" relative="1" as="geometry">
            <mxPoint x="670" y="120" as="sourcePoint" />
            <mxPoint x="670" y="170" as="targetPoint" />
            <Array as="points" />
          </mxGeometry>
        </mxCell>
        <mxCell id="zesTsWAbrXly0I27ui4A-3" value="" style="endArrow=classic;html=1;rounded=0;exitX=0.5;exitY=1;exitDx=0;exitDy=0;entryX=0.5;entryY=0;entryDx=0;entryDy=0;" edge="1" parent="1" source="Ias6ScB54z-BMGi7AfYb-6" target="Ias6ScB54z-BMGi7AfYb-7">
          <mxGeometry width="50" height="50" relative="1" as="geometry">
            <mxPoint x="700" y="180" as="sourcePoint" />
            <mxPoint x="700" y="230" as="targetPoint" />
          </mxGeometry>
        </mxCell>
        <mxCell id="zesTsWAbrXly0I27ui4A-4" value="" style="endArrow=classic;html=1;rounded=0;exitX=0.5;exitY=1;exitDx=0;exitDy=0;entryX=0.5;entryY=0;entryDx=0;entryDy=0;" edge="1" parent="1" source="Ias6ScB54z-BMGi7AfYb-7" target="Ias6ScB54z-BMGi7AfYb-8">
          <mxGeometry width="50" height="50" relative="1" as="geometry">
            <mxPoint x="650" y="230" as="sourcePoint" />
            <mxPoint x="650" y="280" as="targetPoint" />
          </mxGeometry>
        </mxCell>
        <mxCell id="zesTsWAbrXly0I27ui4A-5" value="" style="endArrow=classic;html=1;rounded=0;exitX=0.5;exitY=1;exitDx=0;exitDy=0;entryX=0.5;entryY=0;entryDx=0;entryDy=0;" edge="1" parent="1" source="Ias6ScB54z-BMGi7AfYb-8" target="zesTsWAbrXly0I27ui4A-1">
          <mxGeometry width="50" height="50" relative="1" as="geometry">
            <mxPoint x="530" y="480" as="sourcePoint" />
            <mxPoint x="530" y="530" as="targetPoint" />
          </mxGeometry>
        </mxCell>
      </root>
    </mxGraphModel>
  </diagram>
</mxfile>
